<?xml version="1.0" encoding="UTF-8"?>
<!DOCTYPE svg PUBLIC "-//W3C//DTD SVG 1.1//EN" "http://www.w3.org/Graphics/SVG/1.1/DTD/svg11.dtd">
<svg xmlns="http://www.w3.org/2000/svg" version="1.1" width="512px" height="512px" style="shape-rendering:geometricPrecision; text-rendering:geometricPrecision; image-rendering:optimizeQuality; fill-rule:evenodd; clip-rule:evenodd" xmlns:xlink="http://www.w3.org/1999/xlink">
<g><path style="opacity:1" fill="#4fabf6" d="M 276.5,-0.5 C 308.167,-0.5 339.833,-0.5 371.5,-0.5C 358.963,5.58745 355.796,14.9208 362,27.5C 364.825,30.476 367.992,32.8093 371.5,34.5C 339.427,34.8255 307.427,34.4922 275.5,33.5C 270.389,30.7262 266.722,26.7262 264.5,21.5C 263.34,11.1395 267.34,3.80618 276.5,-0.5 Z"/></g>
<g><path style="opacity:0.996" fill="#72c2f8" d="M 371.5,-0.5 C 405.5,-0.5 439.5,-0.5 473.5,-0.5C 484.505,5.68042 487.672,14.6804 483,26.5C 480.584,29.4234 477.75,31.7567 474.5,33.5C 440.198,34.4797 405.864,34.813 371.5,34.5C 367.992,32.8093 364.825,30.476 362,27.5C 355.796,14.9208 358.963,5.58745 371.5,-0.5 Z"/></g>
<g><path style="opacity:0.996" fill="#1d2e7a" d="M 264.5,21.5 C 266.722,26.7262 270.389,30.7262 275.5,33.5C 280.08,74.4752 284.414,115.475 288.5,156.5C 283.833,156.5 279.167,156.5 274.5,156.5C 258.497,156.333 242.497,156.5 226.5,157C 222.942,158.892 220.442,161.725 219,165.5C 218.5,189.498 218.333,213.498 218.5,237.5C 211.5,237.5 204.5,237.5 197.5,237.5C 197.167,237.5 196.833,237.5 196.5,237.5C 196.667,213.498 196.5,189.498 196,165.5C 195.626,164.584 195.126,163.75 194.5,163C 192.389,162.155 190.389,161.322 188.5,160.5C 193.516,144.468 200.683,129.468 210,115.5C 211.041,110.56 210.374,105.894 208,101.5C 200.9,93.7023 192.4,88.0356 182.5,84.5C 164.891,79.156 148.224,81.3227 132.5,91C 126.93,95.0683 122.263,99.9017 118.5,105.5C 111.572,95.8655 102.572,88.8655 91.5,84.5C 140.431,40.4035 198.098,19.4035 264.5,21.5 Z"/></g>
<g><path style="opacity:1" fill="#2e8be6" d="M 275.5,33.5 C 307.427,34.4922 339.427,34.8255 371.5,34.5C 405.864,34.813 440.198,34.4797 474.5,33.5C 472.965,49.5169 471.298,65.5169 469.5,81.5C 444.498,81.3334 419.498,81.5 394.5,82C 382.079,84.7881 373.245,91.9548 368,103.5C 366.869,113.764 366.369,124.097 366.5,134.5C 367.106,174.183 368.272,213.85 370,253.5C 371.684,264.868 376.517,274.534 384.5,282.5C 384.5,324.833 384.5,367.167 384.5,409.5C 381.167,409.5 377.833,409.5 374.5,409.5C 374.666,399.161 374.5,388.828 374,378.5C 372.89,376.963 371.39,376.297 369.5,376.5C 369.831,346.329 369.498,316.329 368.5,286.5C 367.797,284.284 366.464,282.451 364.5,281C 358.172,279.858 352.172,280.691 346.5,283.5C 346.667,243.832 346.5,204.165 346,164.5C 344.108,160.942 341.275,158.442 337.5,157C 321.17,156.5 304.837,156.333 288.5,156.5C 284.414,115.475 280.08,74.4752 275.5,33.5 Z"/></g>
<g><path style="opacity:1" fill="#fedd42" d="M 90.5,84.5 C 87.3894,86.5591 84.0561,88.3924 80.5,90C 78.2911,91.8734 76.4578,94.04 75,96.5C 74.3333,115.833 74.3333,135.167 75,154.5C 75.5637,156.887 76.7304,158.887 78.5,160.5C 68.5,160.5 58.5,160.5 48.5,160.5C 48.5,159.833 48.1667,159.5 47.5,159.5C 46.6018,154.466 44.9351,149.799 42.5,145.5C 38.1066,135.711 32.94,126.378 27,117.5C 24.9122,112.023 25.2455,106.689 28,101.5C 45.3725,83.1152 66.2058,77.4485 90.5,84.5 Z"/></g>
<g><path style="opacity:1" fill="#fddc41" d="M 182.5,84.5 C 178.897,86.6404 175.23,88.807 171.5,91C 169.383,92.7309 167.883,94.8976 167,97.5C 166.333,116.5 166.333,135.5 167,154.5C 167.564,156.887 168.73,158.887 170.5,160.5C 160.5,160.5 150.5,160.5 140.5,160.5C 138.164,152.994 135.33,145.661 132,138.5C 127.978,131.004 123.811,123.671 119.5,116.5C 118.656,112.901 118.323,109.234 118.5,105.5C 122.263,99.9017 126.93,95.0683 132.5,91C 148.224,81.3227 164.891,79.156 182.5,84.5 Z"/></g>
<g><path style="opacity:0.999" fill="#4faaf6" d="M 469.5,81.5 C 467.687,99.4864 466.02,117.486 464.5,135.5C 463.262,139.619 462.429,143.953 462,148.5C 457.887,185.786 454.387,223.12 451.5,260.5C 443.5,260.5 435.5,260.5 427.5,260.5C 415.829,260.333 404.162,260.5 392.5,261C 388.403,262.922 386.07,266.088 385.5,270.5C 384.517,274.298 384.183,278.298 384.5,282.5C 376.517,274.534 371.684,264.868 370,253.5C 368.272,213.85 367.106,174.183 366.5,134.5C 366.369,124.097 366.869,113.764 368,103.5C 373.245,91.9548 382.079,84.7881 394.5,82C 419.498,81.5 444.498,81.3334 469.5,81.5 Z"/></g>
<g><path style="opacity:1" fill="#faeebd" d="M 90.5,84.5 C 90.8333,84.5 91.1667,84.5 91.5,84.5C 102.572,88.8655 111.572,95.8655 118.5,105.5C 118.323,109.234 118.656,112.901 119.5,116.5C 118.883,116.389 118.383,116.056 118,115.5C 108.683,129.468 101.516,144.468 96.5,160.5C 90.2512,160.614 84.2512,160.614 78.5,160.5C 76.7304,158.887 75.5637,156.887 75,154.5C 74.3333,135.167 74.3333,115.833 75,96.5C 76.4578,94.04 78.2911,91.8734 80.5,90C 84.0561,88.3924 87.3894,86.5591 90.5,84.5 Z"/></g>
<g><path style="opacity:1" fill="#fbefbd" d="M 182.5,84.5 C 192.4,88.0356 200.9,93.7023 208,101.5C 210.374,105.894 211.041,110.56 210,115.5C 200.683,129.468 193.516,144.468 188.5,160.5C 182.289,160.61 176.289,160.61 170.5,160.5C 168.73,158.887 167.564,156.887 167,154.5C 166.333,135.5 166.333,116.5 167,97.5C 167.883,94.8976 169.383,92.7309 171.5,91C 175.23,88.807 178.897,86.6404 182.5,84.5 Z"/></g>
<g><path style="opacity:0.999" fill="#1c2e7a" d="M 119.5,116.5 C 123.811,123.671 127.978,131.004 132,138.5C 135.33,145.661 138.164,152.994 140.5,160.5C 136.039,160.79 133.205,163.123 132,167.5C 131.333,198.833 131.333,230.167 132,261.5C 133.785,265.801 136.952,267.801 141.5,267.5C 141.5,301.5 141.5,335.5 141.5,369.5C 135.878,375.071 132.044,381.738 130,389.5C 129.5,403.496 129.333,417.496 129.5,431.5C 129.5,446.833 129.5,462.167 129.5,477.5C 116.903,470.04 105.237,461.374 94.5,451.5C 95.499,396.669 95.8323,341.669 95.5,286.5C 95.5,280.167 95.5,273.833 95.5,267.5C 99.4925,267.755 102.326,266.089 104,262.5C 104.667,230.167 104.667,197.833 104,165.5C 102.087,162.72 99.5867,161.053 96.5,160.5C 101.516,144.468 108.683,129.468 118,115.5C 118.383,116.056 118.883,116.389 119.5,116.5 Z"/></g>
<g><path style="opacity:0.987" fill="#1d2e79" d="M 464.5,135.5 C 476.61,156.976 486.11,179.643 493,203.5C 508.706,267.481 501.04,328.481 470,386.5C 467.64,391.24 464.807,395.574 461.5,399.5C 461.667,355.832 461.5,312.165 461,268.5C 459.095,264.302 455.928,261.636 451.5,260.5C 454.387,223.12 457.887,185.786 462,148.5C 462.429,143.953 463.262,139.619 464.5,135.5 Z"/></g>
<g><path style="opacity:0.984" fill="#1c2e79" d="M 42.5,145.5 C 44.9351,149.799 46.6018,154.466 47.5,159.5C 44.2424,160.921 41.7424,163.254 40,166.5C 39.3333,198.167 39.3333,229.833 40,261.5C 41.4482,266.144 44.6149,268.144 49.5,267.5C 49.5,311.5 49.5,355.5 49.5,399.5C 12.7938,341.61 1.62709,278.944 16,211.5C 21.2897,187.943 30.123,165.943 42.5,145.5 Z"/></g>
<g><path style="opacity:1" fill="#4fabf6" d="M 274.5,156.5 C 271.528,158.641 269.028,161.308 267,164.5C 266.5,188.831 266.333,213.164 266.5,237.5C 257.833,237.5 249.167,237.5 240.5,237.5C 233.167,237.5 225.833,237.5 218.5,237.5C 218.333,213.498 218.5,189.498 219,165.5C 220.442,161.725 222.942,158.892 226.5,157C 242.497,156.5 258.497,156.333 274.5,156.5 Z"/></g>
<g><path style="opacity:1" fill="#73c2f8" d="M 274.5,156.5 C 279.167,156.5 283.833,156.5 288.5,156.5C 304.837,156.333 321.17,156.5 337.5,157C 341.275,158.442 344.108,160.942 346,164.5C 346.5,204.165 346.667,243.832 346.5,283.5C 334.514,290.492 327.181,300.826 324.5,314.5C 323.668,334.663 323.168,354.996 323,375.5C 321,376.167 319.667,377.5 319,379.5C 318.5,389.161 318.334,398.828 318.5,408.5C 318.5,408.833 318.5,409.167 318.5,409.5C 315.167,409.5 311.833,409.5 308.5,409.5C 311.684,392.882 307.017,379.049 294.5,368C 286.02,362.381 276.686,360.214 266.5,361.5C 266.666,355.824 266.499,350.157 266,344.5C 264.695,341.039 262.529,338.372 259.5,336.5C 264.765,337.429 269.265,336.096 273,332.5C 273.667,302.167 273.667,271.833 273,241.5C 271.728,238.778 269.561,237.444 266.5,237.5C 266.333,213.164 266.5,188.831 267,164.5C 269.028,161.308 271.528,158.641 274.5,156.5 Z"/></g>
<g><path style="opacity:1" fill="#bdc7f6" d="M 47.5,159.5 C 48.1667,159.5 48.5,159.833 48.5,160.5C 57.6577,161.33 66.991,161.83 76.5,162C 75.3333,163.167 74.1667,164.333 73,165.5C 72.3333,197.833 72.3333,230.167 73,262.5C 73.9973,264.323 75.1639,265.99 76.5,267.5C 67.5,267.5 58.5,267.5 49.5,267.5C 44.6149,268.144 41.4482,266.144 40,261.5C 39.3333,229.833 39.3333,198.167 40,166.5C 41.7424,163.254 44.2424,160.921 47.5,159.5 Z"/></g>
<g><path style="opacity:1" fill="#e8eefe" d="M 48.5,160.5 C 58.5,160.5 68.5,160.5 78.5,160.5C 84.2512,160.614 90.2512,160.614 96.5,160.5C 99.5867,161.053 102.087,162.72 104,165.5C 104.667,197.833 104.667,230.167 104,262.5C 102.326,266.089 99.4925,267.755 95.5,267.5C 89.1667,267.5 82.8333,267.5 76.5,267.5C 75.1639,265.99 73.9973,264.323 73,262.5C 72.3333,230.167 72.3333,197.833 73,165.5C 74.1667,164.333 75.3333,163.167 76.5,162C 66.991,161.83 57.6577,161.33 48.5,160.5 Z"/></g>
<g><path style="opacity:1" fill="#bcc6f5" d="M 140.5,160.5 C 149.991,161.33 159.658,161.83 169.5,162C 168.333,163.167 167.167,164.333 166,165.5C 165.17,190.337 165.337,215.003 166.5,239.5C 166.217,240.289 165.717,240.956 165,241.5C 164.5,250.16 164.334,258.827 164.5,267.5C 156.833,267.5 149.167,267.5 141.5,267.5C 136.952,267.801 133.785,265.801 132,261.5C 131.333,230.167 131.333,198.833 132,167.5C 133.205,163.123 136.039,160.79 140.5,160.5 Z"/></g>
<g><path style="opacity:1" fill="#e8eefe" d="M 140.5,160.5 C 150.5,160.5 160.5,160.5 170.5,160.5C 176.289,160.61 182.289,160.61 188.5,160.5C 190.389,161.322 192.389,162.155 194.5,163C 195.126,163.75 195.626,164.584 196,165.5C 196.5,189.498 196.667,213.498 196.5,237.5C 187.161,237.334 177.827,237.5 168.5,238C 167.956,238.717 167.289,239.217 166.5,239.5C 165.337,215.003 165.17,190.337 166,165.5C 167.167,164.333 168.333,163.167 169.5,162C 159.658,161.83 149.991,161.33 140.5,160.5 Z"/></g>
<g><path style="opacity:1" fill="#fe54b5" d="M 196.5,237.5 C 196.833,237.5 197.167,237.5 197.5,237.5C 197.5,270.167 197.5,302.833 197.5,335.5C 191.31,335.177 185.31,335.51 179.5,336.5C 178.833,336.5 178.167,336.5 177.5,336.5C 174.813,336.664 172.146,336.497 169.5,336C 167.333,335.167 165.833,333.667 165,331.5C 164.5,310.503 164.333,289.503 164.5,268.5C 164.5,268.167 164.5,267.833 164.5,267.5C 164.334,258.827 164.5,250.16 165,241.5C 165.717,240.956 166.217,240.289 166.5,239.5C 167.289,239.217 167.956,238.717 168.5,238C 177.827,237.5 187.161,237.334 196.5,237.5 Z"/></g>
<g><path style="opacity:1" fill="#fe79ca" d="M 197.5,237.5 C 204.5,237.5 211.5,237.5 218.5,237.5C 225.833,237.5 233.167,237.5 240.5,237.5C 240.5,270.167 240.5,302.833 240.5,335.5C 226.323,335.171 212.323,335.504 198.5,336.5C 192.167,336.5 185.833,336.5 179.5,336.5C 185.31,335.51 191.31,335.177 197.5,335.5C 197.5,302.833 197.5,270.167 197.5,237.5 Z"/></g>
<g><path style="opacity:1" fill="#fb90ce" d="M 240.5,237.5 C 249.167,237.5 257.833,237.5 266.5,237.5C 269.561,237.444 271.728,238.778 273,241.5C 273.667,271.833 273.667,302.167 273,332.5C 269.265,336.096 264.765,337.429 259.5,336.5C 245.833,336.5 232.167,336.5 218.5,336.5C 211.833,336.5 205.167,336.5 198.5,336.5C 212.323,335.504 226.323,335.171 240.5,335.5C 240.5,302.833 240.5,270.167 240.5,237.5 Z"/></g>
<g><path style="opacity:1" fill="#feb332" d="M 427.5,260.5 C 425.5,262.671 423.666,265.004 422,267.5C 421.5,314.832 421.333,362.165 421.5,409.5C 409.5,409.5 397.5,409.5 385.5,409.5C 385.5,363.167 385.5,316.833 385.5,270.5C 386.07,266.088 388.403,262.922 392.5,261C 404.162,260.5 415.829,260.333 427.5,260.5 Z"/></g>
<g><path style="opacity:1" fill="#fec739" d="M 427.5,260.5 C 435.5,260.5 443.5,260.5 451.5,260.5C 455.928,261.636 459.095,264.302 461,268.5C 461.5,312.165 461.667,355.832 461.5,399.5C 459.938,403.392 457.605,406.725 454.5,409.5C 443.5,409.5 432.5,409.5 421.5,409.5C 421.333,362.165 421.5,314.832 422,267.5C 423.666,265.004 425.5,262.671 427.5,260.5 Z"/></g>
<g><path style="opacity:1" fill="#4fabf6" d="M 49.5,267.5 C 58.5,267.5 67.5,267.5 76.5,267.5C 82.8333,267.5 89.1667,267.5 95.5,267.5C 95.5,273.833 95.5,280.167 95.5,286.5C 95.1667,286.5 94.8333,286.5 94.5,286.5C 84.7125,284.58 77.5458,287.914 73,296.5C 72.8327,340.669 72.3327,384.669 71.5,428.5C 62.9552,419.74 55.6219,410.073 49.5,399.5C 49.5,355.5 49.5,311.5 49.5,267.5 Z"/></g>
<g><path style="opacity:1" fill="#c5934a" d="M 141.5,267.5 C 149.167,267.5 156.833,267.5 164.5,267.5C 164.5,267.833 164.5,268.167 164.5,268.5C 157.167,268.5 149.833,268.5 142.5,268.5C 142.5,301.833 142.5,335.167 142.5,368.5C 142.5,369.167 142.167,369.5 141.5,369.5C 141.5,335.5 141.5,301.5 141.5,267.5 Z"/></g>
<g><path style="opacity:1" fill="#feb232" d="M 164.5,268.5 C 164.333,289.503 164.5,310.503 165,331.5C 165.833,333.667 167.333,335.167 169.5,336C 172.146,336.497 174.813,336.664 177.5,336.5C 175.015,338.652 173.349,341.319 172.5,344.5C 171.512,349.64 171.179,354.974 171.5,360.5C 167.629,360.185 163.962,360.518 160.5,361.5C 153.861,362.267 147.861,364.601 142.5,368.5C 142.5,335.167 142.5,301.833 142.5,268.5C 149.833,268.5 157.167,268.5 164.5,268.5 Z"/></g>
<g><path style="opacity:1" fill="#fe7186" d="M 368.5,286.5 C 368.5,289.833 368.5,293.167 368.5,296.5C 364.194,306.43 357.528,314.43 348.5,320.5C 344.022,322.436 339.356,323.77 334.5,324.5C 329.877,324.526 326.544,322.526 324.5,318.5C 324.5,317.167 324.5,315.833 324.5,314.5C 327.181,300.826 334.514,290.492 346.5,283.5C 352.172,280.691 358.172,279.858 364.5,281C 366.464,282.451 367.797,284.284 368.5,286.5 Z"/></g>
<g><path style="opacity:0.999" fill="#72c2f9" d="M 94.5,286.5 C 94.8323,341.336 94.499,396.003 93.5,450.5C 85.1667,444.167 77.8333,436.833 71.5,428.5C 72.3327,384.669 72.8327,340.669 73,296.5C 77.5458,287.914 84.7125,284.58 94.5,286.5 Z"/></g>
<g><path style="opacity:1" fill="#4e83c4" d="M 94.5,286.5 C 94.8333,286.5 95.1667,286.5 95.5,286.5C 95.8323,341.669 95.499,396.669 94.5,451.5C 93.8333,451.5 93.5,451.167 93.5,450.5C 94.499,396.003 94.8323,341.336 94.5,286.5 Z"/></g>
<g><path style="opacity:1" fill="#ce6489" d="M 368.5,286.5 C 369.498,316.329 369.831,346.329 369.5,376.5C 361.833,376.5 354.167,376.5 346.5,376.5C 338.981,376.825 331.648,376.492 324.5,375.5C 331.833,375.5 339.167,375.5 346.5,375.5C 353.833,375.5 361.167,375.5 368.5,375.5C 368.5,349.167 368.5,322.833 368.5,296.5C 368.5,293.167 368.5,289.833 368.5,286.5 Z"/></g>
<g><path style="opacity:1" fill="#fe4055" d="M 368.5,296.5 C 368.5,322.833 368.5,349.167 368.5,375.5C 361.167,375.5 353.833,375.5 346.5,375.5C 344.82,373.473 343.653,371.139 343,368.5C 342.333,357.5 342.333,346.5 343,335.5C 343.752,330.076 345.585,325.076 348.5,320.5C 357.528,314.43 364.194,306.43 368.5,296.5 Z"/></g>
<g><path style="opacity:1" fill="#e80154" d="M 324.5,318.5 C 326.544,322.526 329.877,324.526 334.5,324.5C 339.356,323.77 344.022,322.436 348.5,320.5C 345.585,325.076 343.752,330.076 343,335.5C 342.333,346.5 342.333,357.5 343,368.5C 343.653,371.139 344.82,373.473 346.5,375.5C 339.167,375.5 331.833,375.5 324.5,375.5C 324.5,356.5 324.5,337.5 324.5,318.5 Z"/></g>
<g><path style="opacity:1" fill="#bec8f6" d="M 177.5,336.5 C 178.167,336.5 178.833,336.5 179.5,336.5C 185.833,336.5 192.167,336.5 198.5,336.5C 205.167,336.5 211.833,336.5 218.5,336.5C 211.015,344.053 210.681,351.886 217.5,360C 202.504,360.5 187.504,360.667 172.5,360.5C 172.5,355.167 172.5,349.833 172.5,344.5C 173.349,341.319 175.015,338.652 177.5,336.5 Z"/></g>
<g><path style="opacity:1" fill="#dec7b1" d="M 172.5,344.5 C 172.5,349.833 172.5,355.167 172.5,360.5C 168.702,361.483 164.702,361.817 160.5,361.5C 163.962,360.518 167.629,360.185 171.5,360.5C 171.179,354.974 171.512,349.64 172.5,344.5 Z"/></g>
<g><path style="opacity:1" fill="#d2dbfa" d="M 218.5,336.5 C 232.167,336.5 245.833,336.5 259.5,336.5C 262.529,338.372 264.695,341.039 266,344.5C 266.499,350.157 266.666,355.824 266.5,361.5C 246.164,361.333 225.831,361.5 205.5,362C 194.877,365.621 188.044,372.788 185,383.5C 184.5,393.161 184.334,402.828 184.5,412.5C 169.845,410.132 156.178,412.965 143.5,421C 138.673,424.332 134.007,427.832 129.5,431.5C 129.333,417.496 129.5,403.496 130,389.5C 132.044,381.738 135.878,375.071 141.5,369.5C 142.167,369.5 142.5,369.167 142.5,368.5C 147.861,364.601 153.861,362.267 160.5,361.5C 164.702,361.817 168.702,361.483 172.5,360.5C 187.504,360.667 202.504,360.5 217.5,360C 210.681,351.886 211.015,344.053 218.5,336.5 Z"/></g>
<g><path style="opacity:1" fill="#e8eefe" d="M 266.5,361.5 C 276.686,360.214 286.02,362.381 294.5,368C 307.017,379.049 311.684,392.882 308.5,409.5C 308.5,416.833 308.5,424.167 308.5,431.5C 308.167,431.5 307.833,431.5 307.5,431.5C 297.306,420.064 284.639,412.731 269.5,409.5C 248.933,408.119 232.267,415.453 219.5,431.5C 209.747,421.788 198.081,415.454 184.5,412.5C 184.334,402.828 184.5,393.161 185,383.5C 188.044,372.788 194.877,365.621 205.5,362C 225.831,361.5 246.164,361.333 266.5,361.5 Z"/></g>
<g><path style="opacity:1" fill="#cfd6f6" d="M 324.5,314.5 C 324.5,315.833 324.5,317.167 324.5,318.5C 324.5,337.5 324.5,356.5 324.5,375.5C 331.648,376.492 338.981,376.825 346.5,376.5C 345.496,377.683 344.662,379.016 344,380.5C 343.333,389.167 343.333,397.833 344,406.5C 344.5,407 345,407.5 345.5,408C 336.506,408.5 327.506,408.666 318.5,408.5C 318.334,398.828 318.5,389.161 319,379.5C 319.667,377.5 321,376.167 323,375.5C 323.168,354.996 323.668,334.663 324.5,314.5 Z"/></g>
<g><path style="opacity:1" fill="#e8eefe" d="M 346.5,376.5 C 354.167,376.5 361.833,376.5 369.5,376.5C 371.39,376.297 372.89,376.963 374,378.5C 374.5,388.828 374.666,399.161 374.5,409.5C 366.5,409.5 358.5,409.5 350.5,409.5C 339.833,409.5 329.167,409.5 318.5,409.5C 318.5,409.167 318.5,408.833 318.5,408.5C 327.506,408.666 336.506,408.5 345.5,408C 345,407.5 344.5,407 344,406.5C 343.333,397.833 343.333,389.167 344,380.5C 344.662,379.016 345.496,377.683 346.5,376.5 Z"/></g>
<g><path style="opacity:1" fill="#fe55b6" d="M 269.5,409.5 C 265.119,413.398 261.619,418.065 259,423.5C 256.504,434.846 259.67,444.179 268.5,451.5C 248.828,452.825 232.494,446.158 219.5,431.5C 232.267,415.453 248.933,408.119 269.5,409.5 Z"/></g>
<g><path style="opacity:1" fill="#fedd41" d="M 308.5,409.5 C 311.833,409.5 315.167,409.5 318.5,409.5C 329.167,409.5 339.833,409.5 350.5,409.5C 349.164,411.01 347.997,412.677 347,414.5C 346.5,422.827 346.334,431.16 346.5,439.5C 333.833,439.5 321.167,439.5 308.5,439.5C 308.5,436.833 308.5,434.167 308.5,431.5C 308.5,424.167 308.5,416.833 308.5,409.5 Z"/></g>
<g><path style="opacity:1" fill="#f6e8b3" d="M 385.5,270.5 C 385.5,316.833 385.5,363.167 385.5,409.5C 385.5,419.5 385.5,429.5 385.5,439.5C 372.5,439.5 359.5,439.5 346.5,439.5C 346.334,431.16 346.5,422.827 347,414.5C 347.997,412.677 349.164,411.01 350.5,409.5C 358.5,409.5 366.5,409.5 374.5,409.5C 377.833,409.5 381.167,409.5 384.5,409.5C 384.5,367.167 384.5,324.833 384.5,282.5C 384.183,278.298 384.517,274.298 385.5,270.5 Z"/></g>
<g><path style="opacity:1" fill="#fedd41" d="M 385.5,409.5 C 397.5,409.5 409.5,409.5 421.5,409.5C 421.5,419.5 421.5,429.5 421.5,439.5C 409.5,439.5 397.5,439.5 385.5,439.5C 385.5,429.5 385.5,419.5 385.5,409.5 Z"/></g>
<g><path style="opacity:0.979" fill="#fcefbd" d="M 421.5,409.5 C 432.5,409.5 443.5,409.5 454.5,409.5C 447.594,420.617 439.261,430.617 429.5,439.5C 426.833,439.5 424.167,439.5 421.5,439.5C 421.5,429.5 421.5,419.5 421.5,409.5 Z"/></g>
<g><path style="opacity:1" fill="#fe7acb" d="M 269.5,409.5 C 284.639,412.731 297.306,420.064 307.5,431.5C 296.995,442.588 283.995,449.255 268.5,451.5C 259.67,444.179 256.504,434.846 259,423.5C 261.619,418.065 265.119,413.398 269.5,409.5 Z"/></g>
<g><path style="opacity:1" fill="#fe7acb" d="M 184.5,412.5 C 184.5,427.833 184.5,443.167 184.5,458.5C 176.309,459.024 171.642,463.358 170.5,471.5C 171.103,480.433 175.77,485.433 184.5,486.5C 184.5,491.5 184.5,496.5 184.5,501.5C 165.135,495.824 146.802,487.824 129.5,477.5C 129.5,462.167 129.5,446.833 129.5,431.5C 134.007,427.832 138.673,424.332 143.5,421C 156.178,412.965 169.845,410.132 184.5,412.5 Z"/></g>
<g><path style="opacity:0.996" fill="#fc90ce" d="M 184.5,412.5 C 198.081,415.454 209.747,421.788 219.5,431.5C 232.494,446.158 248.828,452.825 268.5,451.5C 283.995,449.255 296.995,442.588 307.5,431.5C 307.833,431.5 308.167,431.5 308.5,431.5C 308.5,434.167 308.5,436.833 308.5,439.5C 308.5,461.833 308.5,484.167 308.5,506.5C 298.052,508.276 287.718,509.943 277.5,511.5C 262.833,511.5 248.167,511.5 233.5,511.5C 216.978,509.576 200.645,506.243 184.5,501.5C 184.5,496.5 184.5,491.5 184.5,486.5C 196.154,484.896 200.654,478.229 198,466.5C 195.125,461.144 190.625,458.477 184.5,458.5C 184.5,443.167 184.5,427.833 184.5,412.5 Z"/></g>
<g><path style="opacity:1" fill="#ffb332" d="M 308.5,439.5 C 321.167,439.5 333.833,439.5 346.5,439.5C 346.5,457.833 346.5,476.167 346.5,494.5C 334.146,499.507 321.479,503.507 308.5,506.5C 308.5,484.167 308.5,461.833 308.5,439.5 Z"/></g>
<g><path style="opacity:0.995" fill="#ffc738" d="M 346.5,439.5 C 359.5,439.5 372.5,439.5 385.5,439.5C 385.5,451.167 385.5,462.833 385.5,474.5C 373.259,482.455 360.259,489.122 346.5,494.5C 346.5,476.167 346.5,457.833 346.5,439.5 Z"/></g>
<g><path style="opacity:1" fill="#ffb432" d="M 385.5,439.5 C 397.5,439.5 409.5,439.5 421.5,439.5C 424.167,439.5 426.833,439.5 429.5,439.5C 416.586,453.419 401.92,465.085 385.5,474.5C 385.5,462.833 385.5,451.167 385.5,439.5 Z"/></g>
<g><path style="opacity:1" fill="#feb9e4" d="M 209.5,445.5 C 217.986,445.151 221.82,449.151 221,457.5C 218.646,463.095 214.479,464.928 208.5,463C 204.275,460.337 202.775,456.504 204,451.5C 205.36,448.977 207.193,446.977 209.5,445.5 Z"/></g>
<g><path style="opacity:1" fill="#febae4" d="M 184.5,458.5 C 190.625,458.477 195.125,461.144 198,466.5C 200.654,478.229 196.154,484.896 184.5,486.5C 175.77,485.433 171.103,480.433 170.5,471.5C 171.642,463.358 176.309,459.024 184.5,458.5 Z"/></g>
</svg>
