<?xml version="1.0" encoding="UTF-8"?>
<!DOCTYPE svg PUBLIC "-//W3C//DTD SVG 1.1//EN" "http://www.w3.org/Graphics/SVG/1.1/DTD/svg11.dtd">
<svg xmlns="http://www.w3.org/2000/svg" version="1.1" width="512px" height="512px" style="shape-rendering:geometricPrecision; text-rendering:geometricPrecision; image-rendering:optimizeQuality; fill-rule:evenodd; clip-rule:evenodd" xmlns:xlink="http://www.w3.org/1999/xlink">
<g><path style="opacity:0.981" fill="#252222" d="M 409.5,24.5 C 417.142,24.7425 423.308,28.0758 428,34.5C 445.88,57.6449 448.213,82.3116 435,108.5C 431.38,113.789 427.38,118.789 423,123.5C 422.333,128.833 422.333,134.167 423,139.5C 440.603,120.633 462.103,113.133 487.5,117C 491.5,118.667 493.5,121.667 493.5,126C 488.956,158.879 470.622,179.545 438.5,188C 433.22,189.095 427.887,189.595 422.5,189.5C 422.5,191.5 422.5,193.5 422.5,195.5C 436.504,195.333 450.504,195.5 464.5,196C 473.414,197.369 479.58,202.202 483,210.5C 484.53,218.436 484.863,226.436 484,234.5C 483.312,238.209 481.812,241.543 479.5,244.5C 483.523,250.926 485.19,257.926 484.5,265.5C 485.281,272.816 483.614,279.483 479.5,285.5C 483.664,291.491 485.331,298.157 484.5,305.5C 485.331,312.843 483.664,319.509 479.5,325.5C 483.523,331.926 485.19,338.926 484.5,346.5C 485.235,352.886 483.902,358.719 480.5,364C 506.108,390.542 510.608,420.375 494,453.5C 474.186,481.639 447.352,491.806 413.5,484C 381.838,472.197 365.171,449.364 363.5,415.5C 353.87,413.037 347.703,407.037 345,397.5C 344.333,390.5 344.333,383.5 345,376.5C 345.688,372.791 347.188,369.457 349.5,366.5C 345.254,360.35 343.588,353.517 344.5,346C 343.523,338.612 345.189,331.945 349.5,326C 345.147,319.852 343.48,313.018 344.5,305.5C 343.463,298.107 345.13,291.44 349.5,285.5C 347.188,282.543 345.688,279.209 345,275.5C 344.333,268.5 344.333,261.5 345,254.5C 345.739,250.938 347.239,247.772 349.5,245C 347.599,242.03 346.099,238.864 345,235.5C 344.333,228.167 344.333,220.833 345,213.5C 347.003,205.498 351.836,199.998 359.5,197C 374.784,195.582 390.117,195.082 405.5,195.5C 405.5,193.5 405.5,191.5 405.5,189.5C 370.121,188.059 347.287,170.393 337,136.5C 335.782,131.545 335.449,126.545 336,121.5C 337.227,119.274 339.061,117.774 341.5,117C 366.331,113.166 387.497,120.333 405,138.5C 405.667,133.167 405.667,127.833 405,122.5C 381.915,98.7523 377.915,72.0857 393,42.5C 397.657,35.6782 403.157,29.6782 409.5,24.5 Z"/></g>
<g><path style="opacity:0.973" fill="#242222" d="M 257.5,32.5 C 260.941,32.3011 264.274,32.8011 267.5,34C 285.039,53.2033 302.205,72.7033 319,92.5C 321.546,98.8597 320.046,104.026 314.5,108C 307.95,109.42 301.284,109.92 294.5,109.5C 294.5,174.833 294.5,240.167 294.5,305.5C 307.907,305.056 321.24,305.556 334.5,307C 337.803,310.795 338.303,314.962 336,319.5C 335.097,320.701 333.931,321.535 332.5,322C 235.167,322.667 137.833,322.667 40.5,322C 34.4909,317.33 34.1576,312.33 39.5,307C 46.3846,305.575 53.3846,305.075 60.5,305.5C 60.3333,267.832 60.5,230.165 61,192.5C 61.8333,190.333 63.3333,188.833 65.5,188C 84.8333,187.333 104.167,187.333 123.5,188C 124.667,189.167 125.833,190.333 127,191.5C 127.5,229.499 127.667,267.499 127.5,305.5C 132.833,305.5 138.167,305.5 143.5,305.5C 143.333,254.499 143.5,203.499 144,152.5C 144.284,148.88 146.117,146.38 149.5,145C 168.167,144.333 186.833,144.333 205.5,145C 208,146.167 209.833,148 211,150.5C 211.5,202.166 211.667,253.832 211.5,305.5C 216.833,305.5 222.167,305.5 227.5,305.5C 227.5,240.167 227.5,174.833 227.5,109.5C 220.743,109.877 214.076,109.377 207.5,108C 202.486,103.767 200.986,98.6 203,92.5C 217.626,74.8714 232.626,57.5381 248,40.5C 250.772,37.2166 253.939,34.5499 257.5,32.5 Z"/></g>
<g><path style="opacity:1" fill="#69edbc" d="M 411.5,44.5 C 413.903,44.393 415.736,45.393 417,47.5C 428.466,62.2811 430.466,78.2811 423,95.5C 422.667,88.1667 422.333,80.8333 422,73.5C 419.565,68.7762 415.731,67.2762 410.5,69C 409.333,70.1667 408.167,71.3333 407,72.5C 406.667,80.8333 406.333,89.1667 406,97.5C 397.196,78.6431 399.03,60.9765 411.5,44.5 Z"/></g>
<g><path style="opacity:1" fill="#88c7fd" d="M 278.5,100.5 C 277.501,168.665 277.167,236.998 277.5,305.5C 266.5,305.5 255.5,305.5 244.5,305.5C 244.833,236.665 244.499,167.998 243.5,99.5C 243.262,96.8517 241.928,95.0183 239.5,94C 234.467,93.829 229.467,93.329 224.5,92.5C 236.481,78.6846 248.648,65.0179 261,51.5C 273.352,65.0179 285.519,78.6846 297.5,92.5C 292.533,93.329 287.533,93.829 282.5,94C 280.077,95.5707 278.744,97.7374 278.5,100.5 Z"/></g>
<g><path style="opacity:1" fill="#68ecbb" d="M 382.5,167.5 C 371.685,163.189 363.519,155.855 358,145.5C 356.216,141.6 354.716,137.6 353.5,133.5C 371.664,132.832 386.164,139.832 397,154.5C 397.982,155.759 398.315,157.092 398,158.5C 392.776,154.277 387.276,150.444 381.5,147C 372.632,146.881 369.798,151.048 373,159.5C 376.358,162.031 379.524,164.698 382.5,167.5 Z"/></g>
<g><path style="opacity:1" fill="#68ecba" d="M 465.5,132.5 C 468.898,132.18 472.232,132.513 475.5,133.5C 471.923,145.504 465.257,155.337 455.5,163C 441.301,170.398 440.968,169.731 454.5,161C 459.724,153.535 457.891,148.702 449,146.5C 442.158,149.995 435.825,154.328 430,159.5C 433.574,151.244 439.407,144.744 447.5,140C 453.328,136.788 459.328,134.288 465.5,132.5 Z"/></g>
<g><path style="opacity:1" fill="#6bf4c1" d="M 192.5,161.5 C 191.838,209.845 192.505,257.845 194.5,305.5C 183.346,306.495 172.012,306.828 160.5,306.5C 160.5,258.167 160.5,209.833 160.5,161.5C 171.167,161.5 181.833,161.5 192.5,161.5 Z"/></g>
<g><path style="opacity:1" fill="#0ae59c" d="M 192.5,161.5 C 194.495,209.155 195.162,257.155 194.5,305.5C 192.505,257.845 191.838,209.845 192.5,161.5 Z"/></g>
<g><path style="opacity:1" fill="#177f5b" d="M 382.5,167.5 C 383.756,167.461 384.756,167.961 385.5,169C 384.002,169.585 383.002,169.085 382.5,167.5 Z"/></g>
<g><path style="opacity:1" fill="#9c464c" d="M 77.5,203.5 C 77.5,237.5 77.5,271.5 77.5,305.5C 88.8333,305.5 100.167,305.5 111.5,305.5C 100.012,306.495 88.3453,306.828 76.5,306.5C 76.1683,271.996 76.5017,237.663 77.5,203.5 Z"/></g>
<g><path style="opacity:1" fill="#fb616c" d="M 77.5,203.5 C 88.8333,203.5 100.167,203.5 111.5,203.5C 111.5,237.5 111.5,271.5 111.5,305.5C 100.167,305.5 88.8333,305.5 77.5,305.5C 77.5,271.5 77.5,237.5 77.5,203.5 Z"/></g>
<g><path style="opacity:1" fill="#fee076" d="M 364.5,212.5 C 397.835,212.333 431.168,212.5 464.5,213C 465.333,213.833 466.167,214.667 467,215.5C 467.667,221.5 467.667,227.5 467,233.5C 466.167,234.333 465.333,235.167 464.5,236C 431.167,236.667 397.833,236.667 364.5,236C 361.09,232.954 359.756,229.121 360.5,224.5C 359.775,219.73 361.109,215.73 364.5,212.5 Z"/></g>
<g><path style="opacity:1" fill="#5b86ac" d="M 243.5,99.5 C 244.499,167.998 244.833,236.665 244.5,305.5C 255.5,305.5 266.5,305.5 277.5,305.5C 277.167,236.998 277.501,168.665 278.5,100.5C 278.5,169.167 278.5,237.833 278.5,306.5C 266.833,306.5 255.167,306.5 243.5,306.5C 243.5,237.5 243.5,168.5 243.5,99.5 Z"/></g>
<g><path style="opacity:1" fill="#fabf37" d="M 365.5,252.5 C 398.168,252.333 430.835,252.5 463.5,253C 465,253.833 466.167,255 467,256.5C 467.667,262.167 467.667,267.833 467,273.5C 466.5,275.333 465.333,276.5 463.5,277C 430.833,277.667 398.167,277.667 365.5,277C 361.085,274.288 359.418,270.288 360.5,265C 359.432,259.568 361.099,255.402 365.5,252.5 Z"/></g>
<g><path style="opacity:1" fill="#f9dc74" d="M 364.5,293.5 C 397.502,293.333 430.502,293.5 463.5,294C 464.931,294.465 466.097,295.299 467,296.5C 467.667,302.5 467.667,308.5 467,314.5C 465.786,316.049 464.286,317.215 462.5,318C 430.5,318.667 398.5,318.667 366.5,318C 364,316.833 362.167,315 361,312.5C 360.333,307.833 360.333,303.167 361,298.5C 361.997,296.677 363.164,295.01 364.5,293.5 Z"/></g>
<g><path style="opacity:1" fill="#f7bd37" d="M 365.5,333.5 C 397.835,333.333 430.168,333.5 462.5,334C 464.286,334.785 465.786,335.951 467,337.5C 467.83,343.528 467.664,349.528 466.5,355.5C 442.999,344.241 419.999,345.074 397.5,358C 386.5,358.667 375.5,358.667 364.5,358C 361.069,354.778 359.735,350.778 360.5,346C 360.667,343.5 360.833,341 361,338.5C 362.366,336.638 363.866,334.972 365.5,333.5 Z"/></g>
<g><path style="opacity:0.977" fill="#252322" d="M 119.5,336.5 C 125.176,336.334 130.843,336.501 136.5,337C 158.133,344.878 180.133,351.544 202.5,357C 214.154,362.791 219.821,372.291 219.5,385.5C 241.833,372.667 264.167,359.833 286.5,347C 298.801,340.91 311.134,340.576 323.5,346C 336.962,359.082 337.962,373.082 326.5,388C 288.5,411.333 250.5,434.667 212.5,458C 204.166,461.5 195.499,462.834 186.5,462C 159.988,455.247 133.488,448.414 107,441.5C 104.516,441.826 102.349,442.826 100.5,444.5C 106.447,452.6 106.947,460.934 102,469.5C 95.086,474.375 87.9193,478.875 80.5,483C 69.8334,487.073 61.6667,484.24 56,474.5C 40.5865,446.671 24.9198,419.004 9,391.5C 5.82638,382.941 7.32638,375.441 13.5,369C 20.9375,364.563 28.6042,360.563 36.5,357C 46.9124,355.622 54.0791,359.789 58,369.5C 71.9157,361.459 85.749,353.293 99.5,345C 106.074,341.652 112.741,338.818 119.5,336.5 Z"/></g>
<g><path style="opacity:1" fill="#efc9ba" d="M 156.5,361.5 C 130.535,376.485 104.535,391.485 78.5,406.5C 74.193,399.23 69.8596,391.897 65.5,384.5C 83.0456,373.56 101.046,363.393 119.5,354C 124.076,352.524 128.743,352.19 133.5,353C 141.234,355.743 148.9,358.577 156.5,361.5 Z"/></g>
<g><path style="opacity:1" fill="#f4dacb" d="M 78.5,406.5 C 104.535,391.485 130.535,376.485 156.5,361.5C 170.008,365.902 183.675,369.735 197.5,373C 202.541,376.391 203.541,380.557 200.5,385.5C 184.455,381.822 168.455,377.822 152.5,373.5C 149.363,374.301 147.696,376.301 147.5,379.5C 141.832,385.026 142.499,389.86 149.5,394C 163.032,398.133 176.699,401.8 190.5,405C 205.081,408.084 218.748,405.751 231.5,398C 252.167,386 272.833,374 293.5,362C 299.153,358.902 305.153,357.902 311.5,359C 315.972,360.262 317.972,363.262 317.5,368C 317.853,371.2 316.853,373.867 314.5,376C 276.8,399.516 238.8,422.516 200.5,445C 193.776,445.774 187.11,445.441 180.5,444C 155.348,437.038 130.182,430.204 105,423.5C 100.456,425.044 96.1229,427.044 92,429.5C 86.9845,422.136 82.4845,414.469 78.5,406.5 Z"/></g>
<g><path style="opacity:1" fill="#fabf37" d="M 424.5,363.5 C 457.105,361.624 477.938,376.29 487,407.5C 489.689,431.281 481.189,449.781 461.5,463C 431.818,476.955 407.318,470.788 388,444.5C 374.188,415.851 379.688,391.684 404.5,372C 410.92,368.282 417.586,365.449 424.5,363.5 Z"/></g>
<g><path style="opacity:1" fill="#262322" d="M 430.5,370.5 C 437.891,369.1 441.725,372.1 442,379.5C 453.8,382.807 459.466,390.473 459,402.5C 456.588,405.792 453.421,406.959 449.5,406C 446.383,403.458 443.717,400.458 441.5,397C 435.611,393.366 430.111,393.866 425,398.5C 423.42,403.596 425.254,406.763 430.5,408C 441.298,408.705 450.465,412.872 458,420.5C 465.181,437.308 460.014,448.474 442.5,454C 440.21,464.27 435.043,466.104 427,459.5C 426.505,457.527 426.338,455.527 426.5,453.5C 415.524,451.191 408.858,444.524 406.5,433.5C 407.797,426.351 411.797,424.185 418.5,427C 420.956,429.408 422.789,432.241 424,435.5C 430.961,440.825 437.961,440.825 445,435.5C 445.944,432.653 445.444,430.153 443.5,428C 437.754,425.45 431.754,423.784 425.5,423C 409.446,416.402 404.946,405.236 412,389.5C 415.575,384.585 420.242,381.252 426,379.5C 425.956,375.586 427.456,372.586 430.5,370.5 Z"/></g>
<g><path style="opacity:1" fill="#cdcdd2" d="M 38.5,373.5 C 40.5922,373.561 42.0922,374.561 43,376.5C 58,403.167 73,429.833 88,456.5C 88.6838,457.784 88.5171,458.951 87.5,460C 82.5,462.833 77.5,465.667 72.5,468.5C 55.7874,440.244 39.4541,411.744 23.5,383C 28.5644,379.809 33.5644,376.642 38.5,373.5 Z"/></g>
<g><path style="opacity:1" fill="#e8c4b5" d="M 200.5,385.5 C 199.942,386.79 198.942,387.623 197.5,388C 194.167,388.667 190.833,388.667 187.5,388C 176.456,385.156 165.456,382.156 154.5,379C 152.071,378.297 149.738,378.463 147.5,379.5C 147.696,376.301 149.363,374.301 152.5,373.5C 168.455,377.822 184.455,381.822 200.5,385.5 Z"/></g>
<g><path style="opacity:1" fill="#f4d873" d="M 364.5,374.5 C 369.179,374.334 373.845,374.501 378.5,375C 373.072,382.022 369.405,389.855 367.5,398.5C 364.478,398.572 362.312,397.238 361,394.5C 360.333,389.5 360.333,384.5 361,379.5C 361.997,377.677 363.164,376.01 364.5,374.5 Z"/></g>
<g><path style="opacity:1" fill="#282626" d="M 34.5,382.5 C 41.1633,381.333 43.9966,383.999 43,390.5C 39.952,394.01 36.6187,394.343 33,391.5C 32.068,388.177 32.568,385.177 34.5,382.5 Z"/></g>
</svg>
