<?xml version="1.0" encoding="UTF-8"?>
<!DOCTYPE svg PUBLIC "-//W3C//DTD SVG 1.1//EN" "http://www.w3.org/Graphics/SVG/1.1/DTD/svg11.dtd">
<svg xmlns="http://www.w3.org/2000/svg" version="1.1" width="512px" height="512px" style="shape-rendering:geometricPrecision; text-rendering:geometricPrecision; image-rendering:optimizeQuality; fill-rule:evenodd; clip-rule:evenodd" xmlns:xlink="http://www.w3.org/1999/xlink">
<g><path style="opacity:0.992" fill="#525252" d="M 358.5,152.5 C 354.741,163.618 351.241,174.952 348,186.5C 348.367,165.103 345.7,144.103 340,123.5C 335.838,107.497 327.838,93.8307 316,82.5C 305.615,89.9694 294.115,95.1361 281.5,98C 256.755,103.735 231.755,108.069 206.5,111C 180.059,118.609 165.393,136.109 162.5,163.5C 161.833,168.833 161.167,174.167 160.5,179.5C 158.298,170.354 155.964,161.354 153.5,152.5C 149.268,126.151 151.768,100.484 161,75.5C 178.004,39.9088 205.837,18.0755 244.5,10C 277.878,7.45769 305.544,18.791 327.5,44C 342.937,47.4332 353.437,56.5999 359,71.5C 363.738,86.1437 365.405,101.144 364,116.5C 362.923,128.628 361.09,140.628 358.5,152.5 Z"/></g>
<g><path style="opacity:0.998" fill="#fedfb1" d="M 358.5,152.5 C 363.13,153.732 365.964,156.732 367,161.5C 369.44,173.502 366.606,184.002 358.5,193C 354.628,195.701 350.294,197.201 345.5,197.5C 339.677,214.146 332.01,229.812 322.5,244.5C 320.034,246.74 318.034,249.407 316.5,252.5C 316.565,252.062 316.399,251.728 316,251.5C 274.677,297.394 234.01,296.727 194,249.5C 193.601,249.728 193.435,250.062 193.5,250.5C 192.291,248.059 190.624,246.059 188.5,244.5C 179.17,230.172 171.67,214.839 166,198.5C 155.49,197.337 148.49,191.67 145,181.5C 142.722,173.354 143.055,165.354 146,157.5C 147.857,154.8 150.357,153.134 153.5,152.5C 155.964,161.354 158.298,170.354 160.5,179.5C 160.709,180.922 161.209,182.255 162,183.5C 162.5,176.842 162.666,170.175 162.5,163.5C 165.393,136.109 180.059,118.609 206.5,111C 231.755,108.069 256.755,103.735 281.5,98C 294.115,95.1361 305.615,89.9694 316,82.5C 327.838,93.8307 335.838,107.497 340,123.5C 345.7,144.103 348.367,165.103 348,186.5C 351.241,174.952 354.741,163.618 358.5,152.5 Z"/></g>
<g><path style="opacity:1" fill="#857b6e" d="M 162.5,163.5 C 162.666,170.175 162.5,176.842 162,183.5C 161.209,182.255 160.709,180.922 160.5,179.5C 161.167,174.167 161.833,168.833 162.5,163.5 Z"/></g>
<g><path style="opacity:0.996" fill="#97cff0" d="M 188.5,244.5 C 190.624,246.059 192.291,248.059 193.5,250.5C 208.93,280.276 229.597,305.942 255.5,327.5C 276.323,309.84 294.157,289.506 309,266.5C 311.78,261.938 314.28,257.272 316.5,252.5C 318.034,249.407 320.034,246.74 322.5,244.5C 329.247,256.996 336.247,269.329 343.5,281.5C 342.89,282.391 342.557,283.391 342.5,284.5C 338.833,289.833 335.167,295.167 331.5,300.5C 317.918,319.931 304.084,339.264 290,358.5C 285.607,354.597 281.107,350.931 276.5,347.5C 269.52,341.523 262.52,335.523 255.5,329.5C 248.48,335.523 241.48,341.523 234.5,347.5C 229.874,350.954 225.374,354.621 221,358.5C 206.916,339.264 193.082,319.931 179.5,300.5C 175.657,294.147 171.323,288.147 166.5,282.5C 174.26,270.075 181.594,257.408 188.5,244.5 Z"/></g>
<g><path style="opacity:1" fill="#fac791" d="M 316.5,252.5 C 314.28,257.272 311.78,261.938 309,266.5C 294.157,289.506 276.323,309.84 255.5,327.5C 229.597,305.942 208.93,280.276 193.5,250.5C 193.435,250.062 193.601,249.728 194,249.5C 234.01,296.727 274.677,297.394 316,251.5C 316.399,251.728 316.565,252.062 316.5,252.5 Z"/></g>
<g><path style="opacity:0.997" fill="#cdcccc" d="M 343.5,281.5 C 348.703,282.009 353.37,283.676 357.5,286.5C 362.989,297.478 368.489,308.478 374,319.5C 393.277,321.089 407.61,330.422 417,347.5C 426.958,366.235 431.458,386.235 430.5,407.5C 427.609,406.597 424.609,406.264 421.5,406.5C 423.316,384.092 417.816,363.759 405,345.5C 396.272,333.881 384.772,329.048 370.5,331C 358.033,337.734 350.866,348.234 349,362.5C 346.531,382.018 349.365,400.684 357.5,418.5C 354.579,418.283 351.913,418.949 349.5,420.5C 338.181,396.761 336.681,372.428 345,347.5C 346.333,344.833 347.667,342.167 349,339.5C 353.494,333.01 358.661,327.176 364.5,322C 359.038,308.219 351.705,295.719 342.5,284.5C 342.557,283.391 342.89,282.391 343.5,281.5 Z"/></g>
<g><path style="opacity:0.995" fill="#e5e5e4" d="M 165.5,282.5 C 165.833,282.5 166.167,282.5 166.5,282.5C 171.323,288.147 175.657,294.147 179.5,300.5C 198.075,343.912 217.408,386.912 237.5,429.5C 242.716,443.472 248.716,457.138 255.5,470.5C 262.284,457.138 268.284,443.472 273.5,429.5C 293.592,386.912 312.925,343.912 331.5,300.5C 335.167,295.167 338.833,289.833 342.5,284.5C 351.705,295.719 359.038,308.219 364.5,322C 358.661,327.176 353.494,333.01 349,339.5C 347.667,342.167 346.333,344.833 345,347.5C 336.681,372.428 338.181,396.761 349.5,420.5C 344.847,426.747 345.847,431.913 352.5,436C 363.384,436.766 366.884,431.933 363,421.5C 361.417,420.029 359.583,419.029 357.5,418.5C 349.365,400.684 346.531,382.018 349,362.5C 350.866,348.234 358.033,337.734 370.5,331C 384.772,329.048 396.272,333.881 405,345.5C 417.816,363.759 423.316,384.092 421.5,406.5C 415.287,411.532 414.953,417.032 420.5,423C 430.468,425.703 434.968,421.87 434,411.5C 433.34,409.676 432.173,408.343 430.5,407.5C 431.458,386.235 426.958,366.235 417,347.5C 407.61,330.422 393.277,321.089 374,319.5C 368.489,308.478 362.989,297.478 357.5,286.5C 394.309,299.148 426.143,319.482 453,347.5C 465.776,361.723 473.109,378.39 475,397.5C 475.667,426.167 475.667,454.833 475,483.5C 473.381,492.454 468.214,498.287 459.5,501C 323.833,501.667 188.167,501.667 52.5,501C 43.7861,498.287 38.6194,492.454 37,483.5C 36.3333,454.833 36.3333,426.167 37,397.5C 38.2088,381.087 43.8754,366.42 54,353.5C 79.8769,323.294 111.71,301.628 149.5,288.5C 138.096,304.956 127.929,322.29 119,340.5C 112.207,357.307 107.373,374.641 104.5,392.5C 90.3487,395.485 84.182,404.151 86,418.5C 91.9882,432.612 102.155,436.778 116.5,431C 126.93,423.033 129.097,413.2 123,401.5C 119.741,398.241 116.575,395.075 113.5,392C 117.834,366.662 126.334,342.829 139,320.5C 147.597,307.63 156.43,294.963 165.5,282.5 Z"/></g>
<g><path style="opacity:0.997" fill="#cdcccc" d="M 165.5,282.5 C 156.43,294.963 147.597,307.63 139,320.5C 126.334,342.829 117.834,366.662 113.5,392C 116.575,395.075 119.741,398.241 123,401.5C 129.097,413.2 126.93,423.033 116.5,431C 102.155,436.778 91.9882,432.612 86,418.5C 84.182,404.151 90.3487,395.485 104.5,392.5C 107.373,374.641 112.207,357.307 119,340.5C 127.929,322.29 138.096,304.956 149.5,288.5C 149.611,287.883 149.944,287.383 150.5,287C 155.548,285.595 160.548,284.095 165.5,282.5 Z"/></g>
<g><path style="opacity:1" fill="#57b2e4" d="M 179.5,300.5 C 193.082,319.931 206.916,339.264 221,358.5C 225.374,354.621 229.874,350.954 234.5,347.5C 237.464,352.131 241.131,356.131 245.5,359.5C 243.098,382.852 240.431,406.186 237.5,429.5C 217.408,386.912 198.075,343.912 179.5,300.5 Z"/></g>
<g><path style="opacity:1" fill="#57b2e4" d="M 331.5,300.5 C 312.925,343.912 293.592,386.912 273.5,429.5C 270.569,406.186 267.902,382.852 265.5,359.5C 269.869,356.131 273.536,352.131 276.5,347.5C 281.107,350.931 285.607,354.597 290,358.5C 304.084,339.264 317.918,319.931 331.5,300.5 Z"/></g>
<g><path style="opacity:1" fill="#525353" d="M 276.5,347.5 C 273.536,352.131 269.869,356.131 265.5,359.5C 258.833,359.5 252.167,359.5 245.5,359.5C 241.131,356.131 237.464,352.131 234.5,347.5C 241.48,341.523 248.48,335.523 255.5,329.5C 262.52,335.523 269.52,341.523 276.5,347.5 Z"/></g>
<g><path style="opacity:1" fill="#676768" d="M 245.5,359.5 C 252.167,359.5 258.833,359.5 265.5,359.5C 267.902,382.852 270.569,406.186 273.5,429.5C 268.284,443.472 262.284,457.138 255.5,470.5C 248.716,457.138 242.716,443.472 237.5,429.5C 240.431,406.186 243.098,382.852 245.5,359.5 Z"/></g>
<g><path style="opacity:1" fill="#b4b4b4" d="M 101.5,403.5 C 113.308,402.135 117.808,407.135 115,418.5C 109,425.167 103,425.167 97,418.5C 94.4734,412.235 95.9734,407.235 101.5,403.5 Z"/></g>
<g><path style="opacity:1" fill="#696969" d="M 421.5,406.5 C 424.609,406.264 427.609,406.597 430.5,407.5C 432.173,408.343 433.34,409.676 434,411.5C 434.968,421.87 430.468,425.703 420.5,423C 414.953,417.032 415.287,411.532 421.5,406.5 Z"/></g>
<g><path style="opacity:1" fill="#696969" d="M 357.5,418.5 C 359.583,419.029 361.417,420.029 363,421.5C 366.884,431.933 363.384,436.766 352.5,436C 345.847,431.913 344.847,426.747 349.5,420.5C 351.913,418.949 354.579,418.283 357.5,418.5 Z"/></g>
</svg>
