<?xml version="1.0" encoding="UTF-8"?>
<!DOCTYPE svg PUBLIC "-//W3C//DTD SVG 1.1//EN" "http://www.w3.org/Graphics/SVG/1.1/DTD/svg11.dtd">
<svg xmlns="http://www.w3.org/2000/svg" version="1.1" width="512px" height="512px" style="shape-rendering:geometricPrecision; text-rendering:geometricPrecision; image-rendering:optimizeQuality; fill-rule:evenodd; clip-rule:evenodd" xmlns:xlink="http://www.w3.org/1999/xlink">
<g><path style="opacity:0.991" fill="#64bdfb" d="M 462.5,118.5 C 407.364,102.633 352.364,86.2992 297.5,69.5C 285.14,66.1595 272.807,62.6595 260.5,59C 256.5,58.3333 252.5,58.3333 248.5,59C 182.006,79.3992 115.339,99.2325 48.5,118.5C 90.8922,53.4393 150.892,15.9393 228.5,6C 316.191,-1.22807 388.691,28.2719 446,94.5C 452.111,102.106 457.611,110.106 462.5,118.5 Z"/></g>
<g><path style="opacity:0.997" fill="#0166ed" d="M 297.5,69.5 C 204.829,97.5031 112.162,125.503 19.5,153.5C 15.1565,152.442 10.8232,151.276 6.5,150C 3.37935,149.033 1.04602,147.2 -0.5,144.5C -0.5,141.5 -0.5,138.5 -0.5,135.5C 1.03244,133.479 3.03244,131.979 5.5,131C 19.7633,126.523 34.0966,122.356 48.5,118.5C 115.339,99.2325 182.006,79.3992 248.5,59C 252.5,58.3333 256.5,58.3333 260.5,59C 272.807,62.6595 285.14,66.1595 297.5,69.5 Z"/></g>
<g><path style="opacity:0.999" fill="#0177ef" d="M 297.5,69.5 C 352.364,86.2992 407.364,102.633 462.5,118.5C 476.903,122.356 491.237,126.523 505.5,131C 507.968,131.979 509.968,133.479 511.5,135.5C 511.5,138.5 511.5,141.5 511.5,144.5C 509.954,147.2 507.621,149.033 504.5,150C 497.148,152.17 489.815,154.337 482.5,156.5C 462.842,161.39 443.509,167.056 424.5,173.5C 419.378,174.43 414.378,175.764 409.5,177.5C 401.204,179.599 393.204,182.265 385.5,185.5C 380.856,178.16 374.523,172.66 366.5,169C 338.183,159.673 309.85,150.507 281.5,141.5C 282.204,137.197 280.87,133.697 277.5,131C 263.382,122.723 249.048,122.389 234.5,130C 227.833,136.667 227.833,143.333 234.5,150C 245.979,155.966 257.979,157.133 270.5,153.5C 302.08,163.304 333.413,173.804 364.5,185C 366.041,186.371 367.375,187.871 368.5,189.5C 334.535,199.66 300.535,209.826 266.5,220C 259.901,221.496 253.234,221.829 246.5,221C 209.905,209.852 173.239,199.019 136.5,188.5C 124.964,184.694 113.297,181.028 101.5,177.5C 92.1082,175.036 82.7749,172.369 73.5,169.5C 58.6508,164.704 43.6508,160.37 28.5,156.5C 25.4214,155.696 22.4214,154.696 19.5,153.5C 112.162,125.503 204.829,97.5031 297.5,69.5 Z"/></g>
<g><path style="opacity:1" fill="#0255ca" d="M 281.5,141.5 C 281.509,143.308 281.009,144.975 280,146.5C 277.21,149.465 274.043,151.798 270.5,153.5C 257.979,157.133 245.979,155.966 234.5,150C 227.833,143.333 227.833,136.667 234.5,130C 249.048,122.389 263.382,122.723 277.5,131C 280.87,133.697 282.204,137.197 281.5,141.5 Z"/></g>
<g><path style="opacity:1" fill="#faa809" d="M 281.5,141.5 C 309.85,150.507 338.183,159.673 366.5,169C 374.523,172.66 380.856,178.16 385.5,185.5C 387.815,189.94 389.649,194.607 391,199.5C 391.5,229.832 391.667,260.165 391.5,290.5C 386.534,287.909 381.534,287.909 376.5,290.5C 376.667,260.831 376.5,231.165 376,201.5C 374.738,196.626 372.238,192.626 368.5,189.5C 367.375,187.871 366.041,186.371 364.5,185C 333.413,173.804 302.08,163.304 270.5,153.5C 274.043,151.798 277.21,149.465 280,146.5C 281.009,144.975 281.509,143.308 281.5,141.5 Z"/></g>
<g><path style="opacity:0.987" fill="#65bdfb" d="M 28.5,156.5 C 43.6508,160.37 58.6508,164.704 73.5,169.5C 58.8673,196.326 50.534,224.993 48.5,255.5C 48.5,259.167 48.5,262.833 48.5,266.5C 48.3336,274.174 48.5003,281.841 49,289.5C 50.5167,300.977 52.6834,312.31 55.5,323.5C 51.4556,324.944 47.9556,327.278 45,330.5C 44.2549,334.448 44.7549,338.115 46.5,341.5C 51.8397,356.84 62.1731,367.173 77.5,372.5C 81.4263,378.025 85.093,383.691 88.5,389.5C 81.4521,393.356 76.9521,399.023 75,406.5C 75.6972,408.584 76.8639,410.251 78.5,411.5C 87.2648,425.641 100.098,432.974 117,433.5C 122.597,433.515 128.097,432.848 133.5,431.5C 136.02,433.263 138.353,435.263 140.5,437.5C 136.53,440.639 133.03,444.305 130,448.5C 128.863,452.463 129.697,455.796 132.5,458.5C 133.529,460.517 134.529,462.517 135.5,464.5C 47.2111,410.607 5.71109,331.607 11,227.5C 13.2346,202.896 19.0679,179.229 28.5,156.5 Z"/></g>
<g><path style="opacity:0.991" fill="#65bdfb" d="M 482.5,156.5 C 500.541,201.04 505.374,247.04 497,294.5C 479.262,378.23 431.762,438.397 354.5,475C 339.154,481.505 323.487,486.671 307.5,490.5C 293.714,484.443 280.714,477.11 268.5,468.5C 268.611,467.883 268.944,467.383 269.5,467C 297.48,463.34 323.813,454.673 348.5,441C 351.921,439.301 354.921,437.135 357.5,434.5C 376.008,434.83 394.341,434.497 412.5,433.5C 413.833,432.833 414.833,431.833 415.5,430.5C 416.332,412.004 416.832,393.338 417,374.5C 445.378,328.856 454.378,279.523 444,226.5C 439.77,207.976 433.27,190.309 424.5,173.5C 443.509,167.056 462.842,161.39 482.5,156.5 Z"/></g>
<g><path style="opacity:1" fill="#92cffc" d="M 73.5,169.5 C 82.7749,172.369 92.1082,175.036 101.5,177.5C 101.5,205.167 101.5,232.833 101.5,260.5C 91.2513,244.54 76.5846,236.707 57.5,237C 54.7239,238.708 53.0572,241.208 52.5,244.5C 51.1627,248.242 49.8294,251.909 48.5,255.5C 50.534,224.993 58.8673,196.326 73.5,169.5 Z"/></g>
<g><path style="opacity:1" fill="#93cffa" d="M 424.5,173.5 C 433.27,190.309 439.77,207.976 444,226.5C 454.378,279.523 445.378,328.856 417,374.5C 416.832,393.338 416.332,412.004 415.5,430.5C 415.667,397.165 415.5,363.832 415,330.5C 413.153,326.807 411.32,323.14 409.5,319.5C 409.5,272.167 409.5,224.833 409.5,177.5C 414.378,175.764 419.378,174.43 424.5,173.5 Z"/></g>
<g><path style="opacity:1" fill="#03429b" d="M 101.5,177.5 C 113.297,181.028 124.964,184.694 136.5,188.5C 136.5,213.833 136.5,239.167 136.5,264.5C 134.861,265.473 133.527,266.806 132.5,268.5C 115.591,282.585 110.591,300.252 117.5,321.5C 117.376,322.107 117.043,322.44 116.5,322.5C 112.677,316.862 108.843,311.195 105,305.5C 104.517,304.552 104.351,303.552 104.5,302.5C 109.277,288.051 108.277,274.051 101.5,260.5C 101.5,232.833 101.5,205.167 101.5,177.5 Z"/></g>
<g><path style="opacity:1" fill="#0a55c8" d="M 409.5,177.5 C 409.5,224.833 409.5,272.167 409.5,319.5C 405.825,314.993 401.158,311.993 395.5,310.5C 397.382,306.019 397.882,301.353 397,296.5C 395.669,294.004 393.836,292.004 391.5,290.5C 391.667,260.165 391.5,229.832 391,199.5C 389.649,194.607 387.815,189.94 385.5,185.5C 393.204,182.265 401.204,179.599 409.5,177.5 Z"/></g>
<g><path style="opacity:1" fill="#0155c9" d="M 136.5,188.5 C 173.239,199.019 209.905,209.852 246.5,221C 253.234,221.829 259.901,221.496 266.5,220C 300.535,209.826 334.535,199.66 368.5,189.5C 372.238,192.626 374.738,196.626 376,201.5C 376.5,231.165 376.667,260.831 376.5,290.5C 371.04,296.382 370.04,303.049 373.5,310.5C 362.206,314.632 355.373,322.632 353,334.5C 352.501,340.491 352.334,346.491 352.5,352.5C 324.167,365.167 295.833,377.833 267.5,390.5C 261.662,377.667 251.996,369.001 238.5,364.5C 235.898,365.434 233.898,367.101 232.5,369.5C 228.69,373.131 225.357,377.131 222.5,381.5C 219.833,380.167 217.167,378.833 214.5,377.5C 218.149,351.962 208.482,333.462 185.5,322C 181.754,320.778 179.087,321.944 177.5,325.5C 169.382,333.063 164.382,342.397 162.5,353.5C 158.521,351.846 154.521,350.179 150.5,348.5C 149.571,347.311 149.238,345.978 149.5,344.5C 165.403,329.227 170.236,310.894 164,289.5C 159.643,279.816 153.143,271.983 144.5,266C 141.986,264.748 139.32,264.248 136.5,264.5C 136.5,239.167 136.5,213.833 136.5,188.5 Z"/></g>
<g><path style="opacity:1" fill="#fdb40d" d="M 101.5,260.5 C 108.277,274.051 109.277,288.051 104.5,302.5C 95.21,290.624 87.3767,277.624 81,263.5C 76.2909,259.231 71.9576,259.564 68,264.5C 67.3333,266.833 67.3333,269.167 68,271.5C 73.5252,281.887 79.0252,292.22 84.5,302.5C 68.129,286.434 57.4623,267.101 52.5,244.5C 53.0572,241.208 54.7239,238.708 57.5,237C 76.5846,236.707 91.2513,244.54 101.5,260.5 Z"/></g>
<g><path style="opacity:1" fill="#fdaa0d" d="M 52.5,244.5 C 57.4623,267.101 68.129,286.434 84.5,302.5C 86.8901,304.267 88.5568,306.6 89.5,309.5C 65.9016,304.57 52.235,290.236 48.5,266.5C 48.5,262.833 48.5,259.167 48.5,255.5C 49.8294,251.909 51.1627,248.242 52.5,244.5 Z"/></g>
<g><path style="opacity:0.998" fill="#fe9502" d="M 104.5,302.5 C 104.351,303.552 104.517,304.552 105,305.5C 108.843,311.195 112.677,316.862 116.5,322.5C 119.239,326.304 121.739,330.304 124,334.5C 127.703,337.867 131.036,341.534 134,345.5C 133.929,340.388 133.429,335.388 132.5,330.5C 132.333,319.495 132.5,308.495 133,297.5C 135.913,292.311 140.08,291.144 145.5,294C 146.126,294.75 146.626,295.584 147,296.5C 147.365,312.508 147.865,328.508 148.5,344.5C 149.44,351.144 150.274,357.81 151,364.5C 156.366,370.696 161.866,376.696 167.5,382.5C 172.726,390.564 179.226,397.564 187,403.5C 186.087,399.885 185.253,396.219 184.5,392.5C 182.519,379.543 181.352,366.543 181,353.5C 186.081,348.014 190.748,348.347 195,354.5C 196.595,369.598 198.762,384.598 201.5,399.5C 202.957,406.541 204.624,413.541 206.5,420.5C 218.23,431.067 230.397,441.067 243,450.5C 243.18,448.512 243.014,446.512 242.5,444.5C 241.701,439.675 240.701,435.008 239.5,430.5C 237.747,419.228 236.914,407.895 237,396.5C 242.558,390.759 247.225,391.426 251,398.5C 252.351,413.31 254.517,427.976 257.5,442.5C 258.84,449.528 260.34,456.528 262,463.5C 263.926,465.539 266.093,467.206 268.5,468.5C 280.714,477.11 293.714,484.443 307.5,490.5C 313.668,493.854 314.835,498.521 311,504.5C 309.426,505.848 307.593,506.514 305.5,506.5C 296.765,503.299 288.432,499.299 280.5,494.5C 265.917,485.258 251.583,475.591 237.5,465.5C 225.678,464.505 213.678,464.172 201.5,464.5C 188.057,464.505 174.724,463.339 161.5,461C 156.167,456.333 156.167,451.667 161.5,447C 169.829,447.295 178.162,447.961 186.5,449C 194.159,449.5 201.826,449.666 209.5,449.5C 212.073,450.555 214.739,450.722 217.5,450C 205.628,439.291 193.628,428.791 181.5,418.5C 170.346,417.505 159.012,417.172 147.5,417.5C 134.053,417.546 120.719,416.379 107.5,414C 102.566,411.335 101.399,407.502 104,402.5C 105.594,400.703 107.594,399.703 110,399.5C 125.066,401.949 140.232,402.949 155.5,402.5C 158.976,403.643 162.642,403.81 166.5,403C 157.136,393.97 148.136,384.637 139.5,375C 131.178,372.392 122.845,369.892 114.5,367.5C 112.574,366.514 110.574,365.514 108.5,364.5C 96.1762,360.557 84.1762,355.723 72.5,350C 68.6068,343.328 70.2735,338.828 77.5,336.5C 91.8376,342.586 106.338,348.252 121,353.5C 121.5,353.167 122,352.833 122.5,352.5C 118.117,340.36 110.45,331.027 99.5,324.5C 96.4148,319.328 93.0814,314.328 89.5,309.5C 88.5568,306.6 86.8901,304.267 84.5,302.5C 79.0252,292.22 73.5252,281.887 68,271.5C 67.3333,269.167 67.3333,266.833 68,264.5C 71.9576,259.564 76.2909,259.231 81,263.5C 87.3767,277.624 95.21,290.624 104.5,302.5 Z"/></g>
<g><path style="opacity:1" fill="#fdb40c" d="M 136.5,264.5 C 139.32,264.248 141.986,264.748 144.5,266C 153.143,271.983 159.643,279.816 164,289.5C 170.236,310.894 165.403,329.227 149.5,344.5C 149.167,344.5 148.833,344.5 148.5,344.5C 147.865,328.508 147.365,312.508 147,296.5C 146.626,295.584 146.126,294.75 145.5,294C 140.08,291.144 135.913,292.311 133,297.5C 132.5,308.495 132.333,319.495 132.5,330.5C 132.66,332.199 132.494,333.866 132,335.5C 125.887,312.735 126.053,290.401 132.5,268.5C 133.527,266.806 134.861,265.473 136.5,264.5 Z"/></g>
<g><path style="opacity:1" fill="#fba806" d="M 132.5,268.5 C 126.053,290.401 125.887,312.735 132,335.5C 132.494,333.866 132.66,332.199 132.5,330.5C 133.429,335.388 133.929,340.388 134,345.5C 131.036,341.534 127.703,337.867 124,334.5C 121.739,330.304 119.239,326.304 116.5,322.5C 117.043,322.44 117.376,322.107 117.5,321.5C 110.591,300.252 115.591,282.585 132.5,268.5 Z"/></g>
<g><path style="opacity:1" fill="#95cff9" d="M 48.5,266.5 C 52.235,290.236 65.9016,304.57 89.5,309.5C 93.0814,314.328 96.4148,319.328 99.5,324.5C 84.9213,317.093 70.2547,316.76 55.5,323.5C 52.6834,312.31 50.5167,300.977 49,289.5C 48.5003,281.841 48.3336,274.174 48.5,266.5 Z"/></g>
<g><path style="opacity:1" fill="#fd9402" d="M 391.5,290.5 C 393.836,292.004 395.669,294.004 397,296.5C 397.882,301.353 397.382,306.019 395.5,310.5C 391.677,314.407 387.01,316.073 381.5,315.5C 378.497,314.334 375.83,312.667 373.5,310.5C 370.04,303.049 371.04,296.382 376.5,290.5C 381.534,287.909 386.534,287.909 391.5,290.5 Z"/></g>
<g><path style="opacity:1" fill="#faaa16" d="M 373.5,310.5 C 375.83,312.667 378.497,314.334 381.5,315.5C 376.84,320.674 373.673,326.674 372,333.5C 371.333,366.167 371.333,398.833 372,431.5C 372.5,432 373,432.5 373.5,433C 386.496,433.5 399.496,433.667 412.5,433.5C 394.341,434.497 376.008,434.83 357.5,434.5C 355.549,433.718 354.049,432.384 353,430.5C 352.5,404.502 352.333,378.502 352.5,352.5C 352.334,346.491 352.501,340.491 353,334.5C 355.373,322.632 362.206,314.632 373.5,310.5 Z"/></g>
<g><path style="opacity:1" fill="#feb409" d="M 395.5,310.5 C 401.158,311.993 405.825,314.993 409.5,319.5C 411.32,323.14 413.153,326.807 415,330.5C 415.5,363.832 415.667,397.165 415.5,430.5C 414.833,431.833 413.833,432.833 412.5,433.5C 399.496,433.667 386.496,433.5 373.5,433C 373,432.5 372.5,432 372,431.5C 371.333,398.833 371.333,366.167 372,333.5C 373.673,326.674 376.84,320.674 381.5,315.5C 387.01,316.073 391.677,314.407 395.5,310.5 Z"/></g>
<g><path style="opacity:1" fill="#feb40c" d="M 99.5,324.5 C 110.45,331.027 118.117,340.36 122.5,352.5C 122,352.833 121.5,353.167 121,353.5C 106.338,348.252 91.8376,342.586 77.5,336.5C 70.2735,338.828 68.6068,343.328 72.5,350C 84.1762,355.723 96.1762,360.557 108.5,364.5C 89.5926,363.254 71.9259,357.421 55.5,347C 52.3699,344.872 49.5366,342.372 47,339.5C 46.5357,340.094 46.369,340.761 46.5,341.5C 44.7549,338.115 44.2549,334.448 45,330.5C 47.9556,327.278 51.4556,324.944 55.5,323.5C 70.2547,316.76 84.9213,317.093 99.5,324.5 Z"/></g>
<g><path style="opacity:1" fill="#fdb40e" d="M 214.5,377.5 C 212.194,386.124 207.861,393.457 201.5,399.5C 198.762,384.598 196.595,369.598 195,354.5C 190.748,348.347 186.081,348.014 181,353.5C 181.352,366.543 182.519,379.543 184.5,392.5C 184.565,392.938 184.399,393.272 184,393.5C 174.41,371.463 172.243,348.796 177.5,325.5C 179.087,321.944 181.754,320.778 185.5,322C 208.482,333.462 218.149,351.962 214.5,377.5 Z"/></g>
<g><path style="opacity:1" fill="#fca909" d="M 177.5,325.5 C 172.243,348.796 174.41,371.463 184,393.5C 184.399,393.272 184.565,392.938 184.5,392.5C 185.253,396.219 186.087,399.885 187,403.5C 179.226,397.564 172.726,390.564 167.5,382.5C 163.445,373.271 161.778,363.604 162.5,353.5C 164.382,342.397 169.382,333.063 177.5,325.5 Z"/></g>
<g><path style="opacity:1" fill="#fdaa08" d="M 108.5,364.5 C 110.574,365.514 112.574,366.514 114.5,367.5C 110.705,370.379 106.371,372.213 101.5,373C 93.4772,373.657 85.4772,373.49 77.5,372.5C 62.1731,367.173 51.8397,356.84 46.5,341.5C 46.369,340.761 46.5357,340.094 47,339.5C 49.5366,342.372 52.3699,344.872 55.5,347C 71.9259,357.421 89.5926,363.254 108.5,364.5 Z"/></g>
<g><path style="opacity:1" fill="#96ccf4" d="M 148.5,344.5 C 148.833,344.5 149.167,344.5 149.5,344.5C 149.238,345.978 149.571,347.311 150.5,348.5C 154.521,350.179 158.521,351.846 162.5,353.5C 161.778,363.604 163.445,373.271 167.5,382.5C 161.866,376.696 156.366,370.696 151,364.5C 150.274,357.81 149.44,351.144 148.5,344.5 Z"/></g>
<g><path style="opacity:1" fill="#92cffc" d="M 352.5,352.5 C 352.333,378.502 352.5,404.502 353,430.5C 354.049,432.384 355.549,433.718 357.5,434.5C 354.921,437.135 351.921,439.301 348.5,441C 323.813,454.673 297.48,463.34 269.5,467C 268.944,467.383 268.611,467.883 268.5,468.5C 266.093,467.206 263.926,465.539 262,463.5C 260.34,456.528 258.84,449.528 257.5,442.5C 265.142,435.217 269.642,426.217 271,415.5C 271.972,406.86 270.805,398.527 267.5,390.5C 295.833,377.833 324.167,365.167 352.5,352.5 Z"/></g>
<g><path style="opacity:1" fill="#fdb40f" d="M 267.5,390.5 C 270.805,398.527 271.972,406.86 271,415.5C 269.642,426.217 265.142,435.217 257.5,442.5C 254.517,427.976 252.351,413.31 251,398.5C 247.225,391.426 242.558,390.759 237,396.5C 236.914,407.895 237.747,419.228 239.5,430.5C 239.657,431.873 239.49,433.207 239,434.5C 230.406,413.507 228.24,391.84 232.5,369.5C 233.898,367.101 235.898,365.434 238.5,364.5C 251.996,369.001 261.662,377.667 267.5,390.5 Z"/></g>
<g><path style="opacity:1" fill="#97cef6" d="M 114.5,367.5 C 122.845,369.892 131.178,372.392 139.5,375C 148.136,384.637 157.136,393.97 166.5,403C 162.642,403.81 158.976,403.643 155.5,402.5C 143.154,385.65 126.488,378.817 105.5,382C 99.3238,383.444 93.6572,385.944 88.5,389.5C 85.093,383.691 81.4263,378.025 77.5,372.5C 85.4772,373.49 93.4772,373.657 101.5,373C 106.371,372.213 110.705,370.379 114.5,367.5 Z"/></g>
<g><path style="opacity:1" fill="#fdaa09" d="M 232.5,369.5 C 228.24,391.84 230.406,413.507 239,434.5C 239.49,433.207 239.657,431.873 239.5,430.5C 240.701,435.008 241.701,439.675 242.5,444.5C 223.427,432.513 215.593,415.179 219,392.5C 220.278,388.835 221.444,385.168 222.5,381.5C 225.357,377.131 228.69,373.131 232.5,369.5 Z"/></g>
<g><path style="opacity:1" fill="#96cef6" d="M 214.5,377.5 C 217.167,378.833 219.833,380.167 222.5,381.5C 221.444,385.168 220.278,388.835 219,392.5C 215.593,415.179 223.427,432.513 242.5,444.5C 243.014,446.512 243.18,448.512 243,450.5C 230.397,441.067 218.23,431.067 206.5,420.5C 204.624,413.541 202.957,406.541 201.5,399.5C 207.861,393.457 212.194,386.124 214.5,377.5 Z"/></g>
<g><path style="opacity:1" fill="#feb40e" d="M 155.5,402.5 C 140.232,402.949 125.066,401.949 110,399.5C 107.594,399.703 105.594,400.703 104,402.5C 101.399,407.502 102.566,411.335 107.5,414C 120.719,416.379 134.053,417.546 147.5,417.5C 145.524,419.011 143.191,419.844 140.5,420C 118.929,422.859 98.2621,420.026 78.5,411.5C 76.8639,410.251 75.6972,408.584 75,406.5C 76.9521,399.023 81.4521,393.356 88.5,389.5C 93.6572,385.944 99.3238,383.444 105.5,382C 126.488,378.817 143.154,385.65 155.5,402.5 Z"/></g>
<g><path style="opacity:1" fill="#fbaa12" d="M 78.5,411.5 C 98.2621,420.026 118.929,422.859 140.5,420C 143.191,419.844 145.524,419.011 147.5,417.5C 159.012,417.172 170.346,417.505 181.5,418.5C 172.161,418.334 162.827,418.5 153.5,419C 147.613,424.442 140.947,428.609 133.5,431.5C 128.097,432.848 122.597,433.515 117,433.5C 100.098,432.974 87.2648,425.641 78.5,411.5 Z"/></g>
<g><path style="opacity:1" fill="#98cef4" d="M 181.5,418.5 C 193.628,428.791 205.628,439.291 217.5,450C 214.739,450.722 212.073,450.555 209.5,449.5C 196.886,432.206 179.886,425.372 158.5,429C 152.08,431.044 146.08,433.878 140.5,437.5C 138.353,435.263 136.02,433.263 133.5,431.5C 140.947,428.609 147.613,424.442 153.5,419C 162.827,418.5 172.161,418.334 181.5,418.5 Z"/></g>
<g><path style="opacity:1" fill="#feb40d" d="M 209.5,449.5 C 201.826,449.666 194.159,449.5 186.5,449C 178.162,447.961 169.829,447.295 161.5,447C 156.167,451.667 156.167,456.333 161.5,461C 174.724,463.339 188.057,464.505 201.5,464.5C 199.189,466.068 196.522,466.902 193.5,467C 171.952,469.373 151.619,466.54 132.5,458.5C 129.697,455.796 128.863,452.463 130,448.5C 133.03,444.305 136.53,440.639 140.5,437.5C 146.08,433.878 152.08,431.044 158.5,429C 179.886,425.372 196.886,432.206 209.5,449.5 Z"/></g>
<g><path style="opacity:0.976" fill="#fcaa0e" d="M 201.5,464.5 C 213.678,464.172 225.678,464.505 237.5,465.5C 227.494,465.334 217.494,465.5 207.5,466C 197.691,475.235 186.025,480.069 172.5,480.5C 157.625,480.892 145.292,475.559 135.5,464.5C 134.529,462.517 133.529,460.517 132.5,458.5C 151.619,466.54 171.952,469.373 193.5,467C 196.522,466.902 199.189,466.068 201.5,464.5 Z"/></g>
<g><path style="opacity:0.976" fill="#67bdfa" d="M 237.5,465.5 C 251.583,475.591 265.917,485.258 280.5,494.5C 251.481,496.971 222.814,494.804 194.5,488C 186.84,486.095 179.507,483.595 172.5,480.5C 186.025,480.069 197.691,475.235 207.5,466C 217.494,465.5 227.494,465.334 237.5,465.5 Z"/></g>
</svg>
