<?xml version="1.0" encoding="UTF-8"?>
<!DOCTYPE svg PUBLIC "-//W3C//DTD SVG 1.1//EN" "http://www.w3.org/Graphics/SVG/1.1/DTD/svg11.dtd">
<svg xmlns="http://www.w3.org/2000/svg" version="1.1" width="512px" height="512px" style="shape-rendering:geometricPrecision; text-rendering:geometricPrecision; image-rendering:optimizeQuality; fill-rule:evenodd; clip-rule:evenodd" xmlns:xlink="http://www.w3.org/1999/xlink">
<g><path style="opacity:0.997" fill="#fe592a" d="M 400.5,57.5 C 427.475,93.5633 433.975,133.23 420,176.5C 407.846,212.826 389.512,245.493 365,274.5C 356.002,285.33 346.502,295.663 336.5,305.5C 336.666,296.827 336.5,288.16 336,279.5C 334.749,276.619 332.583,274.786 329.5,274C 324.177,273.501 318.844,273.334 313.5,273.5C 307.389,272.095 303.055,274.095 300.5,279.5C 299.833,273.833 299.167,268.167 298.5,262.5C 297.707,258.041 295.04,255.708 290.5,255.5C 283.679,254.345 276.679,254.179 269.5,255C 265.667,256.167 263.167,258.667 262,262.5C 261.5,276.163 261.333,289.829 261.5,303.5C 251.833,303.5 242.167,303.5 232.5,303.5C 195.5,303.5 158.5,303.5 121.5,303.5C 101.403,276.639 86.5694,246.972 77,214.5C 64.3864,164.433 76.5531,121.6 113.5,86C 151.293,56.0909 192.96,49.4242 238.5,66C 257.687,74.185 273.687,86.5184 286.5,103C 290.167,105 293.833,105 297.5,103C 323.994,70.4263 358.327,55.2597 400.5,57.5 Z"/></g>
<g><path style="opacity:1" fill="#f63511" d="M 400.5,57.5 C 449.808,62.7312 484.308,88.0645 504,133.5C 507.341,142.747 509.841,152.08 511.5,161.5C 511.5,172.167 511.5,182.833 511.5,193.5C 506.223,225.483 494.723,255.15 477,282.5C 455.517,315.207 430.35,345.04 401.5,372C 369.516,401.664 335.516,428.664 299.5,453C 294.516,454.921 289.516,454.921 284.5,453C 262.201,438.027 240.868,421.86 220.5,404.5C 234.161,394.507 247.828,384.507 261.5,374.5C 261.334,380.842 261.5,387.175 262,393.5C 264.722,399.892 269.555,402.225 276.5,400.5C 282.176,400.666 287.843,400.499 293.5,400C 296.021,398.442 297.688,396.275 298.5,393.5C 299.167,387.833 299.833,382.167 300.5,376.5C 301.268,379.562 303.268,381.228 306.5,381.5C 313.989,382.656 321.655,382.822 329.5,382C 332.333,380.5 334.5,378.333 336,375.5C 336.5,352.169 336.667,328.836 336.5,305.5C 346.502,295.663 356.002,285.33 365,274.5C 389.512,245.493 407.846,212.826 420,176.5C 433.975,133.23 427.475,93.5633 400.5,57.5 Z"/></g>
<g><path style="opacity:1" fill="#ffc3af" d="M 247.5,136.5 C 251.95,136.142 255.45,137.808 258,141.5C 261.814,153.77 265.314,166.104 268.5,178.5C 291.836,178.333 315.169,178.5 338.5,179C 344.45,181.477 345.95,185.643 343,191.5C 342.097,192.701 340.931,193.535 339.5,194C 313.167,194.667 286.833,194.667 260.5,194C 259.069,193.535 257.903,192.701 257,191.5C 255.132,184.729 252.965,178.063 250.5,171.5C 241.367,200.065 232.534,228.732 224,257.5C 218.837,263.062 214.171,262.729 210,256.5C 202.468,230.737 194.635,205.071 186.5,179.5C 161.84,178.667 137.173,178.167 112.5,178C 107.014,172.919 107.347,168.252 113.5,164C 140.5,163.333 167.5,163.333 194.5,164C 196.286,164.785 197.786,165.951 199,167.5C 205.202,187.106 211.202,206.773 217,226.5C 225.865,198.238 234.532,169.905 243,141.5C 244.366,139.638 245.866,137.972 247.5,136.5 Z"/></g>
<g><path style="opacity:0.997" fill="#838387" d="M 48.5,254.5 C 52.6725,255.829 55.8392,258.495 58,262.5C 58.6667,305.833 58.6667,349.167 58,392.5C 56.2503,397.085 53.0836,400.085 48.5,401.5C 44.1171,401.652 40.6171,399.985 38,396.5C 36.915,390.093 36.0817,383.76 35.5,377.5C 36.8333,344.5 36.8333,311.5 35.5,278.5C 36.0817,272.24 36.915,265.907 38,259.5C 40.6171,256.015 44.1171,254.348 48.5,254.5 Z"/></g>
<g><path style="opacity:1" fill="#848286" d="M 290.5,255.5 C 285.821,255.334 281.155,255.501 276.5,256C 279.333,257.5 281.5,259.667 283,262.5C 283.667,305.833 283.667,349.167 283,392.5C 281.723,395.938 279.557,398.605 276.5,400.5C 269.555,402.225 264.722,399.892 262,393.5C 261.5,387.175 261.334,380.842 261.5,374.5C 261.5,366.833 261.5,359.167 261.5,351.5C 261.5,335.5 261.5,319.5 261.5,303.5C 261.333,289.829 261.5,276.163 262,262.5C 263.167,258.667 265.667,256.167 269.5,255C 276.679,254.179 283.679,254.345 290.5,255.5 Z"/></g>
<g><path style="opacity:1" fill="#545353" d="M 290.5,255.5 C 295.04,255.708 297.707,258.041 298.5,262.5C 298.5,306.167 298.5,349.833 298.5,393.5C 297.688,396.275 296.021,398.442 293.5,400C 287.843,400.499 282.176,400.666 276.5,400.5C 279.557,398.605 281.723,395.938 283,392.5C 283.667,349.167 283.667,305.833 283,262.5C 281.5,259.667 279.333,257.5 276.5,256C 281.155,255.501 285.821,255.334 290.5,255.5 Z"/></g>
<g><path style="opacity:0.997" fill="#838388" d="M 12.5,273.5 C 15.7926,274.41 18.2926,276.41 20,279.5C 20.6667,311.833 20.6667,344.167 20,376.5C 17.891,379.122 15.391,381.122 12.5,382.5C 6.699,383.43 2.36566,381.43 -0.5,376.5C -0.5,343.833 -0.5,311.167 -0.5,278.5C 1.29585,277.207 2.96252,275.707 4.5,274C 7.14603,273.503 9.8127,273.336 12.5,273.5 Z"/></g>
<g><path style="opacity:1" fill="#555455" d="M 12.5,273.5 C 18.8421,273.334 25.1754,273.5 31.5,274C 33.751,274.748 35.0844,276.248 35.5,278.5C 36.8333,311.5 36.8333,344.5 35.5,377.5C 35.0844,379.752 33.751,381.252 31.5,382C 25.1754,382.5 18.8421,382.666 12.5,382.5C 15.391,381.122 17.891,379.122 20,376.5C 20.6667,344.167 20.6667,311.833 20,279.5C 18.2926,276.41 15.7926,274.41 12.5,273.5 Z"/></g>
<g><path style="opacity:1" fill="#848388" d="M 313.5,273.5 C 316.139,275.309 318.306,277.642 320,280.5C 320.667,311.833 320.667,343.167 320,374.5C 317.615,380.611 313.115,382.945 306.5,381.5C 303.268,381.228 301.268,379.562 300.5,376.5C 299.167,344.167 299.167,311.833 300.5,279.5C 303.055,274.095 307.389,272.095 313.5,273.5 Z"/></g>
<g><path style="opacity:1" fill="#555353" d="M 313.5,273.5 C 318.844,273.334 324.177,273.501 329.5,274C 332.583,274.786 334.749,276.619 336,279.5C 336.5,288.16 336.666,296.827 336.5,305.5C 336.667,328.836 336.5,352.169 336,375.5C 334.5,378.333 332.333,380.5 329.5,382C 321.655,382.822 313.989,382.656 306.5,381.5C 313.115,382.945 317.615,380.611 320,374.5C 320.667,343.167 320.667,311.833 320,280.5C 318.306,277.642 316.139,275.309 313.5,273.5 Z"/></g>
<g><path style="opacity:1" fill="#735f5c" d="M 298.5,262.5 C 299.167,268.167 299.833,273.833 300.5,279.5C 299.167,311.833 299.167,344.167 300.5,376.5C 299.833,382.167 299.167,387.833 298.5,393.5C 298.5,349.833 298.5,306.167 298.5,262.5 Z"/></g>
<g><path style="opacity:1" fill="#545353" d="M 48.5,254.5 C 54.8421,254.334 61.1754,254.5 67.5,255C 69.5873,255.792 71.4207,256.959 73,258.5C 74.4674,273.403 74.9674,288.403 74.5,303.5C 74.5,312.833 74.5,322.167 74.5,331.5C 123.168,331.667 171.834,331.5 220.5,331C 225.91,329.257 229.744,325.757 232,320.5C 232.499,314.843 232.666,309.176 232.5,303.5C 242.167,303.5 251.833,303.5 261.5,303.5C 261.5,319.5 261.5,335.5 261.5,351.5C 228.833,351.5 196.167,351.5 163.5,351.5C 133.833,351.5 104.167,351.5 74.5,351.5C 74.6666,366.17 74.4999,380.837 74,395.5C 72.1251,398.187 69.6251,400.021 66.5,401C 60.5092,401.499 54.5092,401.666 48.5,401.5C 53.0836,400.085 56.2503,397.085 58,392.5C 58.6667,349.167 58.6667,305.833 58,262.5C 55.8392,258.495 52.6725,255.829 48.5,254.5 Z"/></g>
<g><path style="opacity:0.998" fill="#848388" d="M 74.5,303.5 C 90.1667,303.5 105.833,303.5 121.5,303.5C 158.5,303.5 195.5,303.5 232.5,303.5C 232.666,309.176 232.499,314.843 232,320.5C 229.744,325.757 225.91,329.257 220.5,331C 171.834,331.5 123.168,331.667 74.5,331.5C 74.5,322.167 74.5,312.833 74.5,303.5 Z"/></g>
<g><path style="opacity:0.992" fill="#fe5829" d="M 163.5,351.5 C 196.167,351.5 228.833,351.5 261.5,351.5C 261.5,359.167 261.5,366.833 261.5,374.5C 247.828,384.507 234.161,394.507 220.5,404.5C 199.917,388.585 180.917,370.919 163.5,351.5 Z"/></g>
</svg>
